<svg xmlns="http://www.w3.org/2000/svg" viewBox="0 0 100 100">
  <rect width="100" height="100" fill="#1A1209"/>
  <g stroke="#C4622D" stroke-width="2.5" stroke-linecap="round" fill="none">
    <path d="M50 85 Q34 79 14 64"/>
    <path d="M50 85 Q30 74 16 55"/>
    <path d="M50 85 Q32 68 22 46"/>
    <path d="M50 85 Q38 62 34 38"/>
    <path d="M50 85 Q46 60 44 34"/>
    <path d="M50 85 Q54 60 56 34"/>
    <path d="M50 85 Q62 62 66 38"/>
    <path d="M50 85 Q68 68 78 46"/>
    <path d="M50 85 Q70 74 84 55"/>
    <path d="M50 85 Q66 79 86 64"/>
  </g>
</svg>
